PathFileType	4	(x/y/z)	TRC_MarkerData\Passive\Passive_Pref0002.trc
DataRate	CameraRate	NumFrames	NumMarkers	Units	OrigDataRate	OrigDataStartFrame	OrigNumFrames
240	240	4	50	mm	240	228	303
Frame#	Time	R_AC			L_AC			HEAD			STERN			C7			L_IC			R_IC			L_ASIS			R_ASIS			L_GT			R_GT			L_PSIS			R_PSIS			SACRAL			L_LAT_KNEE			L_MED_KNEE			R_LAT_KNEE			R_MED_KNEE			L_LAT_ANK			L_MED_ANK			R_LAT_ANK			R_MED_ANK			L_THIGH_PROX_POST			L_THIGH_PROX_ANT			L_THIGH_DIST_ANT			L_THIGH_DIST_POST			R_THIGH_PROX_POST			R_THIGH_PROX_ANT			R_THIGH_DIST_ANT			R_THIGH_DIST_POST			L_SHANK_PROX_POST			L_SHANK_PROX_ANT			L_SHANK_DIST_ANT			L_SHANK_DIST_POST			R_SHANK_PROX_POST			R_SHANK_PROX_ANT			R_SHANK_DIST_ANT			R_SHANK_DIST_POST			L_HEEL_LAT			L_HEEL_SUP			L_HEEL_MED			R_HEEL_LAT			R_HEEL_SUP			R_HEEL_MED			L_1ST_MET			L_5TH_MET			L_TOE			R_1ST_MET			R_5TH_MET			R_TOE			
		X1	Y1	Z1	X2	Y2	Z2	X3	Y3	Z3	X4	Y4	Z4	X5	Y5	Z5	X6	Y6	Z6	X7	Y7	Z7	X8	Y8	Z8	X9	Y9	Z9	X10	Y10	Z10	X11	Y11	Z11	X12	Y12	Z12	X13	Y13	Z13	X14	Y14	Z14	X15	Y15	Z15	X16	Y16	Z16	X17	Y17	Z17	X18	Y18	Z18	X19	Y19	Z19	X20	Y20	Z20	X21	Y21	Z21	X22	Y22	Z22	X23	Y23	Z23	X24	Y24	Z24	X25	Y25	Z25	X26	Y26	Z26	X27	Y27	Z27	X28	Y28	Z28	X29	Y29	Z29	X30	Y30	Z30	X31	Y31	Z31	X32	Y32	Z32	X33	Y33	Z33	X34	Y34	Z34	X35	Y35	Z35	X36	Y36	Z36	X37	Y37	Z37	X38	Y38	Z38	X39	Y39	Z39	X40	Y40	Z40	X41	Y41	Z41	X42	Y42	Z42	X43	Y43	Z43	X44	Y44	Z44	X45	Y45	Z45	X46	Y46	Z46	X47	Y47	Z47	X48	Y48	Z48	X49	Y49	Z49	X50	Y50	Z50	
 
228	0.94897	341.22	1545.2	521.39	325.14	1564.7	129.75	445.3	1855	345.11	434.24	1516.8	324.13	290.57	1598	330.61	337.75	1112.5	160.16	351.48	1126.8	500.72	408.18	1050.9	194.52	415.27	1050.5	463.87	330.69	969.28	139.58	331.65	977.02	513.31	204.86	1065.6	283.48	212.72	1072.1	392.56	195.5	1044.7	339.49	434.64	568.71	142.55	455.28	564.6	277.14	364.98	553.58	462.02	384.14	558.5	336.27	117.23	245.8	167.04	118.5	248.67	245.56	273.6	105.74	392.17	303.66	124.74	295.76	350.62	814.2	142.74	415.1	826.85	139.57	434.67	753.59	141.18	370.99	742.84	144.62	324.93	796.23	498.53	392.14	800.33	507.32	391.77	726.84	495	324.75	722.49	482.42	406.77	523.23	150.6	449.42	509.15	161.43	419.49	468.99	168.73	370.39	483.21	157.11	271.91	405.3	445.35	340.65	404.91	463.31	339.45	331.96	448.29	271.41	329.86	431.54	22.747	221.73	170.98	30.266	246.8	207.49	18.194	217.63	238.76	206.07	56.906	362.13	202.43	83.241	326.52	219.48	55.472	296.02	206.64	93.34	261.18	188.97	98.666	155.93	254.38	71.589	236.48	450.38	43.279	314.33	407.53	35.499	422.04	490.62	47.658	368.7
229	0.95315	346.4	1546	521.47	330.33	1565.4	129.8	450.5	1855.6	344.96	439.42	1517.4	324.23	295.82	1598.7	330.66	342.81	1113.2	160.39	355.89	1127.4	500.95	413.39	1051.9	195.08	419.68	1051	464.43	336.42	970.31	139.72	335.54	977.6	513.43	209.79	1066.3	283.26	217.39	1072.9	392.35	200.34	1045.5	339.23	443.77	570.38	143.07	463.98	566.73	277.78	365.93	554.03	462.28	385.55	558.75	336.62	131.87	242.06	166.12	132.7	244.95	244.6	273.95	106.2	392.3	304.16	125.29	295.94	357.63	815.38	142.75	422.07	828.54	140.11	442.19	755.51	141.68	378.59	744.16	144.69	327.54	796.98	498.59	394.66	800.66	507.69	393.9	727.12	495.29	326.9	723.24	482.47	416.66	524.44	151	459.47	511.13	162.07	430.21	470.45	169.22	380.94	483.81	157.33	272.54	405.96	445.33	341.21	405.44	463.53	339.92	332.47	448.53	271.92	330.51	431.57	37.778	216.39	169.57	44.672	241.58	206.09	32.974	212.23	237.35	206.28	57.693	362.14	202.69	84.104	326.55	219.63	56.359	295.99	223.4	91.237	260.72	206.16	96.224	155.4	271.61	70.29	236.27	450.52	43.243	314.41	407.59	35.465	422.1	490.77	47.413	368.79
230	0.95733	351.58	1546.7	521.54	335.53	1566.1	129.84	455.71	1856.3	344.82	444.61	1518	324.32	301.08	1599.4	330.69	347.88	1113.8	160.6	360.28	1128.1	501.16	418.6	1052.8	195.63	424.08	1051.4	464.99	342.13	971.29	139.85	339.42	978.16	513.55	214.72	1067	283.02	222.06	1073.7	392.11	205.15	1046.2	338.95	452.8	572.02	143.64	472.57	568.81	278.46	366.9	554.47	462.52	386.96	559	336.96	146.63	238.26	165.22	147.01	241.16	243.65	274.28	106.67	392.44	304.64	125.85	296.11	364.57	816.53	142.79	428.96	830.17	140.66	449.61	757.36	142.21	386.11	745.45	144.81	330.15	797.72	498.65	397.2	800.99	508.05	396.04	727.4	495.58	329.07	723.99	482.51	426.48	525.6	151.45	469.45	513.09	162.76	440.88	471.9	169.76	391.45	484.38	157.6	273.17	406.62	445.31	341.77	405.97	463.75	340.4	332.97	448.77	272.45	331.16	431.6	52.981	210.96	168.17	59.226	236.26	204.69	47.921	206.72	235.94	206.48	58.483	362.15	202.97	84.967	326.59	219.78	57.248	295.97	240.3	89.133	260.3	223.51	93.79	154.9	288.99	69.025	236.1	450.66	43.211	314.49	407.64	35.433	422.15	490.92	47.176	368.87
231	0.96151	356.74	1547.4	521.61	340.75	1566.7	129.88	460.91	1856.9	344.67	449.8	1518.5	324.42	306.34	1600	330.73	352.97	1114.4	160.81	364.66	1128.7	501.36	423.8	1053.7	196.16	428.47	1051.8	465.53	347.83	972.21	139.99	343.3	978.7	513.65	219.64	1067.7	282.77	226.72	1074.4	391.85	209.95	1046.9	338.67	461.74	573.63	144.25	481.05	570.85	279.19	367.87	554.91	462.76	388.36	559.24	337.29	161.53	234.4	164.35	161.43	237.31	242.73	274.6	107.14	392.59	305.12	126.41	296.27	371.46	817.62	142.85	435.77	831.74	141.22	456.94	759.16	142.78	393.53	746.69	144.95	332.79	798.45	498.71	399.76	801.31	508.39	398.2	727.67	495.85	331.25	724.72	482.56	436.23	526.74	151.94	479.34	515.03	163.5	451.5	473.32	170.35	401.91	484.91	157.91	273.8	407.27	445.28	342.33	406.5	463.95	340.87	333.48	448.99	272.98	331.81	431.62	68.357	205.45	166.77	73.928	230.86	203.29	63.037	201.11	234.54	206.69	59.273	362.17	203.26	85.828	326.63	219.93	58.134	295.95	257.34	87.039	259.91	241.03	91.375	154.44	306.51	67.804	235.99	450.8	43.183	314.57	407.7	35.401	422.21	491.06	46.947	368.96
